s off
v -0.476270 -0.476270 0.476270
v -0.476270 -0.476270 -0.476270
v 0.476270 -0.476270 -0.476270
v 0.476270 -0.476270 0.476270
v -0.476270 0.476270 0.476270
v -0.476270 0.476270 -0.476270
v 0.476270 0.476270 -0.476270
v 0.476270 0.476270 0.476270
vt 0.001000 0.001000
vt 0.999000 0.001000
vt 0.001000 0.999000
vt 0.999000 0.999000
vt 0.001000 0.001000
vt 0.999000 0.001000
vt 0.001000 0.999000
vt 0.001000 0.001000
vt 0.999000 0.001000
vt 0.001000 0.999000
vt 0.001000 0.001000
vt 0.999000 0.001000
vt 0.001000 0.999000
vt 0.001000 0.001000
vt 0.999000 0.001000
vt 0.001000 0.999000
vt 0.001000 0.001000
vt 0.999000 0.001000
vt 0.001000 0.999000
vt 0.999000 0.001000
vt 0.999000 0.999000
vt 0.001000 0.999000
vt 0.999000 0.001000
vt 0.999000 0.999000
vt 0.001000 0.999000
vt 0.999000 0.001000
vt 0.999000 0.999000
vt 0.001000 0.999000
vt 0.999000 0.001000
vt 0.999000 0.999000
vt 0.001000 0.999000
vt 0.999000 0.001000
vt 0.999000 0.999000
vt 0.001000 0.999000
vn -1.000000 0.000000 0.000000
vn -1.000000 0.000000 0.000000
vn -1.000000 0.000000 0.000000
vn 0.000000 0.000000 -1.000000
vn 0.000000 0.000000 -1.000000
vn 0.000000 0.000000 -1.000000
vn 1.000000 0.000000 0.000000
vn 1.000000 0.000000 0.000000
vn 1.000000 0.000000 0.000000
vn 0.000000 0.000000 1.000000
vn 0.000000 0.000000 1.000000
vn 0.000000 0.000000 1.000000
vn 0.000000 -1.000000 0.000000
vn 0.000000 -1.000000 0.000000
vn 0.000000 -1.000000 0.000000
vn 0.000000 1.000000 0.000000
vn 0.000000 1.000000 0.000000
vn 0.000000 1.000000 0.000000
vn -1.000000 0.000000 0.000000
vn -1.000000 0.000000 0.000000
vn -1.000000 0.000000 0.000000
vn 0.000000 0.000000 -1.000000
vn 0.000000 0.000000 -1.000000
vn 0.000000 0.000000 -1.000000
vn 1.000000 0.000000 0.000000
vn 1.000000 0.000000 0.000000
vn 1.000000 0.000000 0.000000
vn 0.000000 0.000000 1.000000
vn 0.000000 0.000000 1.000000
vn 0.000000 0.000000 1.000000
vn 0.000000 -1.000000 0.000000
vn 0.000000 -1.000000 0.000000
vn 0.000000 -1.000000 0.000000
vn 0.000000 1.000000 0.000000
vn 0.000000 1.000000 0.000000
vn 0.000000 1.000000 0.000000
s off
f 5/1/1 6/2/2 1/3/3
f 6/5/4 7/6/5 2/7/6
f 7/8/7 8/9/8 3/10/9
f 8/11/10 5/12/11 4/13/12
f 1/14/13 2/15/14 4/16/15
f 8/17/16 7/18/17 5/19/18
f 6/2/19 2/4/20 1/3/21
f 7/20/22 3/21/23 2/22/24
f 8/23/25 4/24/26 3/25/27
f 5/26/28 1/27/29 4/28/30
f 2/29/31 3/30/32 4/31/33
f 7/32/34 6/33/35 5/34/36