# Blender3D v249 OBJ File: skybox.blend
# www.blender3d.org
v -0.449212 0.713489 1.512991
v 0.423984 1.679348 -0.005115
v -0.835646 0.802522 -1.287498
v -1.708842 -0.163336 0.230607
v 0.835647 -0.802522 1.287499
v 1.708842 0.163336 -0.230608
v 0.449211 -0.713490 -1.512991
v -0.423984 -1.679348 0.005115
vt 0.999278 0.749060
vt 0.666098 0.749039
vt 0.665518 0.501243
vt 0.999331 0.501274
vt 0.334807 0.501271
vt 0.334808 0.249692
vt 0.665009 0.249683
vt 0.665455 0.501218
vt 0.334486 0.749200
vt 0.000592 0.749200
vt 0.334761 0.501291
vt 0.000546 0.501165
vt 0.665275 0.749167
vt 0.665828 0.999871
vt 0.334575 0.749224
vt 0.334727 0.999499
vt 0.665520 0.000562
vt 0.665012 0.249674
vt 0.334377 0.000412
vt 0.334810 0.249672
vt 0.666028 0.749053
vt 0.334513 0.749218
vt 0.665471 0.501237
vt 0.334798 0.501289
vn -0.436598 -0.482930 0.759053
vn -0.436598 -0.482929 0.759053
vn -0.629815 -0.438413 -0.641192
vn 0.436598 0.482930 -0.759053
vn 0.436598 0.482929 -0.759053
vn 0.629815 0.438413 0.641192
vn 0.629816 0.438413 0.641191
vn 0.642429 -0.758006 -0.112746
vn -0.642429 0.758006 0.112746
s off
f 5/1/1 1/2/1 4/3/1
f 5/1/2 4/3/2 8/4/2
f 3/5/3 7/6/3 8/7/3
f 3/5/3 8/7/3 4/8/3
f 2/9/4 6/10/4 3/11/4
f 6/10/5 7/12/5 3/11/5
f 1/13/6 5/14/6 2/15/6
f 5/14/7 6/16/7 2/15/7
f 5/17/8 8/18/8 6/19/8
f 8/18/8 7/20/8 6/19/8
f 1/21/9 2/22/9 4/23/9
f 2/22/9 3/24/9 4/23/9
